<svg id="da" viewBox="0 0 354 288" fill="none" xmlns="http://www.w3.org/2000/svg">
<g id="Icon Illustrations">
<g id="Oval 2 Copy 2" opacity="0.24" filter="url(#filter0_f_8_492)">
<ellipse cx="213.007" cy="140.123" rx="43.7504" ry="43.1952" fill="#FF7EFA" fill-opacity="0.98"/>
</g>
<path id="Path 33" d="M137.139 271.196L181.618 245.183V194.094L137.139 220.897V271.196Z" fill="url(#paint0_linear_8_492)"/>
<path id="Path 34" d="M137.166 271.59L94.6501 247.559V194.83L137.166 221.339V271.59Z" fill="url(#paint1_linear_8_492)"/>
<path id="Path 34 Copy" opacity="0.4" d="M130.428 259.425L101.388 243.011V206.996L130.428 225.102V259.425Z" stroke="url(#paint2_linear_8_492)" stroke-width="0.991613"/>
<g id="Group 39">
<path id="Path 7 Copy" opacity="0.405357" d="M138.039 207.313L116.186 194.81L25.9944 35.1647H141.811L156.769 194.81L138.039 207.313Z" fill="url(#paint3_linear_8_492)"/>
<path id="Path 7" opacity="0.405357" d="M156.769 194.972L200.473 46.8735H116.186L147.404 213.484L156.769 194.972Z" fill="url(#paint4_linear_8_492)"/>
<g id="Group 23">
<path id="Combined Shape" d="M179.044 133.276C184.271 129.867 187.952 129.496 190.196 131.076L193.737 132.927L192.907 134.12C195.615 142.205 188.625 160.64 173.955 169.404C170.866 171.249 168.33 172.175 166.308 172.364L165.539 173.469L162.985 171.837C155.239 167.873 162.567 144.023 179.044 133.276Z" fill="#D7911D"/>
<path id="Path 10" d="M183.306 135.022C161.855 149.069 154.778 185.247 177.57 171.576C200.362 157.905 204.757 120.975 183.306 135.022Z" fill="url(#paint5_linear_8_492)"/>
<path id="Path 10 Copy 2" opacity="0.4" d="M182.16 140.572C166.799 150.96 162.035 176.928 178.356 166.818C194.676 156.708 197.52 130.184 182.16 140.572Z" stroke="#D7911D" stroke-width="0.57385"/>
</g>
<g id="Group 23 Copy 8">
<path id="Combined Shape_2" d="M71.7466 125.886C65.5848 126.875 62.0714 125.717 60.6645 123.36L58.1816 120.23L59.4256 119.477C60.24 110.99 74.1236 96.9916 91.0904 94.9525C94.6623 94.5232 97.3557 94.7084 99.28 95.3584L100.432 94.6615L102.101 97.1911C107.566 103.963 91.1701 122.771 71.7466 125.886Z" fill="#D7911D"/>
<path id="Path 10_2" d="M68.5624 122.558C93.8724 118.45 115.052 88.2779 88.6702 91.4968C62.288 94.7156 43.2524 126.665 68.5624 122.558Z" fill="url(#paint6_linear_8_492)"/>
<path id="Path 10 Copy 2_2" opacity="0.4" d="M71.867 117.954C90.1245 114.712 105.039 92.9272 86.0172 95.525C66.9954 98.1227 53.6094 121.197 71.867 117.954Z" stroke="#D7911D" stroke-width="0.57385"/>
</g>
<g id="Group 23 Copy 7">
<path id="Combined Shape_3" d="M166.271 82.39C166.253 78.1233 167.441 75.9595 169.234 75.3889L171.683 74.2212L172.071 75.1691C177.89 77.0394 186.123 88.4931 185.698 100.135C185.609 102.586 185.187 104.355 184.526 105.537L184.886 106.415L182.944 107.134C177.636 109.722 166.328 95.8398 166.271 82.39Z" fill="#D7911D"/>
<path id="Path 10_3" d="M168.745 81.0565C168.852 98.59 187.55 117.441 188.177 99.3313C188.804 81.2213 168.637 63.523 168.745 81.0565Z" fill="url(#paint7_linear_8_492)"/>
<path id="Path 10 Copy 3" opacity="0.3" d="M170.894 83.0926C170.977 96.7244 185.514 111.381 186.002 97.3008C186.49 83.2207 170.81 69.4608 170.894 83.0926Z" stroke="#D7911D" stroke-width="0.57385"/>
</g>
</g>
<path id="Path 35" d="M94.6501 195.235L138.312 171.28L180.959 194.499L137.21 221.192L94.6501 195.235Z" fill="url(#paint8_linear_8_492)"/>
<path id="Path 35_2" d="M116.267 195.8L138.138 183.791L159.501 195.432L137.586 208.813L116.267 195.8Z" fill="url(#paint9_linear_8_492)"/>
<g id="Oval 2" opacity="0.405357" filter="url(#filter1_f_8_492)">
<ellipse cx="177.392" cy="235.529" rx="27.9532" ry="27.5985" fill="#FFC37E" fill-opacity="0.98"/>
</g>
<g id="Oval 2 Copy" opacity="0.405357" filter="url(#filter2_f_8_492)">
<ellipse cx="86.5583" cy="202.685" rx="26.5627" ry="26.2257" fill="#FF7E95" fill-opacity="0.98"/>
</g>
<path id="Path 53" d="M138.63 194.83V154.925L155.938 141.569C156.668 141.006 157.096 140.136 157.096 139.214V113.875" stroke="url(#paint10_linear_8_492)" stroke-width="0.991613"/>
<path id="Path 54" d="M138.566 154.792V138.532C138.566 136.889 137.234 135.557 135.591 135.557H122.977V114.61" stroke="url(#paint11_linear_8_492)" stroke-width="0.991613"/>
<ellipse id="Oval 5" cx="123.349" cy="114.979" rx="3.35439" ry="3.31182" fill="url(#paint12_linear_8_492)"/>
<ellipse id="Oval 5_2" cx="156.893" cy="114.979" rx="3.35439" ry="3.31182" fill="url(#paint13_linear_8_492)"/>
<ellipse id="Oval 5_3" cx="139.002" cy="153.985" rx="3.35439" ry="3.31182" fill="url(#paint14_linear_8_492)"/>
<g id="Group 23 Copy 6">
<path id="Combined Shape_4" d="M91.9462 143.02C94.4393 138.174 97.0692 136.339 99.4508 136.625L102.933 136.575L102.818 137.852C108.355 142.999 111.001 160.268 103.657 173.246C102.111 175.978 100.588 177.763 99.1365 178.76L99.0301 179.942L96.3907 179.747C88.8107 179.92 84.0873 158.298 91.9462 143.02Z" fill="#D7911D"/>
<path id="Path 10_4" d="M95.5525 142.795C85.346 162.729 95.5724 193.828 106.957 173.623C118.342 153.418 105.759 122.861 95.5525 142.795Z" fill="url(#paint15_linear_8_492)"/>
<path id="Path 10 Copy 4" opacity="0.4" d="M97.0169 146.799C89.4641 161.55 97.0316 184.564 105.457 169.612C113.881 154.661 104.57 132.048 97.0169 146.799Z" stroke="#D7911D" stroke-width="0.57385"/>
<path id="Combined Shape_5" opacity="0.2" fill-rule="evenodd" clip-rule="evenodd" d="M111.061 161.204C111.046 161.211 111.032 161.217 111.018 161.224C104.084 164.474 98.2454 169.884 94.1214 175.575C97.0278 181.44 101.877 182.639 106.957 173.623C109.155 169.724 110.459 165.438 111.061 161.204Z" fill="black"/>
</g>
</g>
<defs>
<filter id="filter0_f_8_492" x="72.8501" y="0.520832" width="280.315" height="279.204" filterUnits="userSpaceOnUse" color-interpolation-filters="sRGB">
<feFlood flood-opacity="0" result="BackgroundImageFix"/>
<feBlend mode="normal" in="SourceGraphic" in2="BackgroundImageFix" result="shape"/>
<feGaussianBlur stdDeviation="16.0678" result="effect1_foregroundBlur_8_492"/>
</filter>
<filter id="filter1_f_8_492" x="125.337" y="183.828" width="104.11" height="103.4" filterUnits="userSpaceOnUse" color-interpolation-filters="sRGB">
<feFlood flood-opacity="0" result="BackgroundImageFix"/>
<feBlend mode="normal" in="SourceGraphic" in2="BackgroundImageFix" result="shape"/>
<feGaussianBlur stdDeviation="4.01695" result="effect1_foregroundBlur_8_492"/>
</filter>
<filter id="filter2_f_8_492" x="1.46292" y="117.927" width="170.191" height="169.517" filterUnits="userSpaceOnUse" color-interpolation-filters="sRGB">
<feFlood flood-opacity="0" result="BackgroundImageFix"/>
<feBlend mode="normal" in="SourceGraphic" in2="BackgroundImageFix" result="shape"/>
<feGaussianBlur stdDeviation="9.75545" result="effect1_foregroundBlur_8_492"/>
</filter>
<linearGradient id="paint0_linear_8_492" x1="163.389" y1="104.422" x2="23.7603" y2="153.328" gradientUnits="userSpaceOnUse">
<stop stop-color="#EDB64F"/>
<stop offset="1" stop-color="#DD26BC"/>
</linearGradient>
<linearGradient id="paint1_linear_8_492" x1="158.803" y1="233.538" x2="74.6823" y2="182.751" gradientUnits="userSpaceOnUse">
<stop stop-color="#6B1B98"/>
<stop offset="1" stop-color="#DE0F62"/>
</linearGradient>
<linearGradient id="paint2_linear_8_492" x1="98.0652" y1="193.889" x2="62.236" y2="242.664" gradientUnits="userSpaceOnUse">
<stop stop-color="#FFD599"/>
<stop offset="0.482372" stop-color="#D178A0"/>
<stop offset="1" stop-color="#FFCE08"/>
</linearGradient>
<linearGradient id="paint3_linear_8_492" x1="58.8792" y1="53.5258" x2="58.8792" y2="279.08" gradientUnits="userSpaceOnUse">
<stop stop-color="#FDF27D" stop-opacity="0.01"/>
<stop offset="0.4936" stop-color="#FCF17B" stop-opacity="0.240234"/>
<stop offset="1" stop-color="#FBF079"/>
</linearGradient>
<linearGradient id="paint4_linear_8_492" x1="100.011" y1="65.5199" x2="100.011" y2="227.235" gradientUnits="userSpaceOnUse">
<stop stop-color="#FDF27D" stop-opacity="0.01"/>
<stop offset="0.4936" stop-color="#FCF17B" stop-opacity="0.240234"/>
<stop offset="1" stop-color="#FBF079"/>
</linearGradient>
<linearGradient id="paint5_linear_8_492" x1="158.321" y1="124.368" x2="140.024" y2="178.026" gradientUnits="userSpaceOnUse">
<stop stop-color="#FFF585"/>
<stop offset="1" stop-color="#DCC613"/>
</linearGradient>
<linearGradient id="paint6_linear_8_492" x1="87.0535" y1="142.453" x2="125.593" y2="100.876" gradientUnits="userSpaceOnUse">
<stop stop-color="#FFF585"/>
<stop offset="1" stop-color="#DCC613"/>
</linearGradient>
<linearGradient id="paint7_linear_8_492" x1="152.888" y1="90.2871" x2="176.003" y2="123.638" gradientUnits="userSpaceOnUse">
<stop stop-color="#FFF585"/>
<stop offset="1" stop-color="#DCC613"/>
</linearGradient>
<linearGradient id="paint8_linear_8_492" x1="168.177" y1="137.922" x2="82.572" y2="235.014" gradientUnits="userSpaceOnUse">
<stop stop-color="#EDB64F"/>
<stop offset="0.977895" stop-color="#E64082"/>
</linearGradient>
<linearGradient id="paint9_linear_8_492" x1="150.912" y1="181.059" x2="98.2397" y2="181.059" gradientUnits="userSpaceOnUse">
<stop stop-color="#FFD066"/>
<stop offset="1" stop-color="#CE1D64"/>
</linearGradient>
<linearGradient id="paint10_linear_8_492" x1="136.517" y1="93.6358" x2="87.0567" y2="121.363" gradientUnits="userSpaceOnUse">
<stop stop-color="#FFD599"/>
<stop offset="0.482372" stop-color="#D178A0"/>
<stop offset="1" stop-color="#FFE26F"/>
</linearGradient>
<linearGradient id="paint11_linear_8_492" x1="114.334" y1="109.238" x2="88.9118" y2="187.025" gradientUnits="userSpaceOnUse">
<stop stop-color="#FFD599"/>
<stop offset="1" stop-color="#A014A8"/>
</linearGradient>
<linearGradient id="paint12_linear_8_492" x1="375.951" y1="347.344" x2="369.392" y2="329.007" gradientUnits="userSpaceOnUse">
<stop stop-color="#FFFCF5"/>
<stop offset="1" stop-color="#FFEFAD"/>
</linearGradient>
<linearGradient id="paint13_linear_8_492" x1="476.585" y1="347.344" x2="470.027" y2="329.007" gradientUnits="userSpaceOnUse">
<stop stop-color="#FFFCF5"/>
<stop offset="1" stop-color="#FFEFAD"/>
</linearGradient>
<linearGradient id="paint14_linear_8_492" x1="422.911" y1="464.361" x2="416.352" y2="446.024" gradientUnits="userSpaceOnUse">
<stop stop-color="#FFFCF5"/>
<stop offset="1" stop-color="#FFEFAD"/>
</linearGradient>
<linearGradient id="paint15_linear_8_492" x1="72.0226" y1="145.009" x2="80.5107" y2="194.544" gradientUnits="userSpaceOnUse">
<stop stop-color="#FFF585"/>
<stop offset="1" stop-color="#DCC613"/>
</linearGradient>
</defs>
</svg>
